<?xml version="1.0" encoding="utf-8"?>
<!-- Generator: Adobe Illustrator 24.0.3, SVG Export Plug-In . SVG Version: 6.00 Build 0)  -->
<svg version="1.1" id="Layer_1" xmlns="http://www.w3.org/2000/svg" xmlns:xlink="http://www.w3.org/1999/xlink" x="0px" y="0px"
	 viewBox="0 0 250 250" style="enable-background:new 0 0 250 250;" xml:space="preserve">
<style type="text/css">
	.st0{fill-rule:evenodd;clip-rule:evenodd;fill:#888888;}
	.st1{fill:#888888;}
</style>
<g>
	<path class="st0" d="M128.37,24.76c-58.46,0-105.86,47.39-105.86,105.86c0,46.77,30.33,86.45,72.39,100.45
		c5.29,0.98,7.23-2.3,7.23-5.09c0-2.52-0.1-10.86-0.14-19.71c-29.45,6.4-35.66-12.49-35.66-12.49
		c-4.82-12.23-11.75-15.49-11.75-15.49c-9.61-6.57,0.72-6.43,0.72-6.43c10.63,0.75,16.23,10.91,16.23,10.91
		c9.44,16.18,24.76,11.5,30.81,8.8c0.95-6.84,3.69-11.51,6.72-14.16c-23.51-2.68-48.23-11.75-48.23-52.31
		c0-11.56,4.14-21,10.91-28.41c-1.1-2.67-4.72-13.43,1.03-28.01c0,0,8.89-2.84,29.12,10.85c8.44-2.35,17.5-3.52,26.5-3.56
		c9,0.04,18.06,1.22,26.52,3.56c20.21-13.7,29.08-10.85,29.08-10.85c5.76,14.58,2.14,25.35,1.04,28.01
		c6.79,7.41,10.89,16.86,10.89,28.41c0,40.66-24.76,49.61-48.34,52.23c3.8,3.29,7.18,9.73,7.18,19.6c0,14.16-0.12,25.56-0.12,29.05
		c0,2.82,1.91,6.12,7.27,5.08c42.04-14.01,72.33-53.68,72.33-100.43C234.23,72.15,186.84,24.76,128.37,24.76z"/>
	<path class="st1" d="M62.61,176.74c-0.23,0.53-1.06,0.68-1.81,0.32c-0.77-0.35-1.2-1.06-0.95-1.59c0.23-0.54,1.06-0.69,1.82-0.33
		C62.44,175.49,62.88,176.22,62.61,176.74L62.61,176.74z M61.31,175.78"/>
	<path class="st1" d="M66.9,181.53c-0.51,0.47-1.49,0.25-2.16-0.49c-0.69-0.74-0.82-1.73-0.31-2.2c0.52-0.47,1.48-0.25,2.17,0.49
		C67.29,180.07,67.43,181.05,66.9,181.53L66.9,181.53z M65.89,180.44"/>
	<path class="st1" d="M71.07,187.62c-0.65,0.45-1.71,0.03-2.37-0.91c-0.65-0.94-0.65-2.07,0.02-2.52c0.66-0.45,1.7-0.04,2.37,0.89
		C71.73,186.03,71.73,187.16,71.07,187.62L71.07,187.62z M71.07,187.62"/>
	<path class="st1" d="M76.79,193.51c-0.58,0.64-1.82,0.47-2.72-0.41c-0.93-0.85-1.18-2.06-0.6-2.7c0.59-0.64,1.83-0.46,2.74,0.41
		C77.13,191.66,77.41,192.88,76.79,193.51L76.79,193.51z M76.79,193.51"/>
	<path class="st1" d="M84.68,196.93c-0.26,0.83-1.45,1.21-2.64,0.85c-1.2-0.36-1.98-1.33-1.74-2.17c0.25-0.84,1.44-1.23,2.65-0.85
		C84.14,195.13,84.93,196.09,84.68,196.93L84.68,196.93z M84.68,196.93"/>
	<path class="st1" d="M93.34,197.57c0.03,0.87-0.99,1.6-2.25,1.61c-1.27,0.03-2.29-0.68-2.3-1.54c0-0.88,0.99-1.6,2.26-1.62
		C92.31,196,93.34,196.7,93.34,197.57L93.34,197.57z M93.34,197.57"/>
	<path class="st1" d="M101.4,196.2c0.15,0.85-0.72,1.73-1.97,1.96c-1.23,0.23-2.37-0.3-2.52-1.15c-0.15-0.87,0.74-1.75,1.97-1.97
		C100.12,194.82,101.24,195.33,101.4,196.2L101.4,196.2z M101.4,196.2"/>
</g>
</svg>
