<?xml version="1.0" encoding="utf-8"?>
<!-- Generator: Adobe Illustrator 24.0.3, SVG Export Plug-In . SVG Version: 6.00 Build 0)  -->
<svg version="1.1" id="Layer_1" xmlns="http://www.w3.org/2000/svg" xmlns:xlink="http://www.w3.org/1999/xlink" x="0px" y="0px"
	 viewBox="0 0 300 300" style="enable-background:new 0 0 300 300;" xml:space="preserve">
<style type="text/css">
	.st0{fill:#888888;}
</style>
<path class="st0" d="M250,87.97c-7.36,3.26-15.27,5.47-23.57,6.46c8.47-5.08,14.98-13.12,18.04-22.7
	c-7.93,4.7-16.71,8.12-26.06,9.96c-7.48-7.97-18.15-12.96-29.95-12.96c-22.66,0-41.03,18.37-41.03,41.03c0,3.22,0.36,6.35,1.06,9.35
	c-34.1-1.71-64.34-18.05-84.57-42.87c-3.53,6.06-5.56,13.11-5.56,20.63c0,14.24,7.24,26.79,18.25,34.15
	c-6.73-0.21-13.05-2.06-18.58-5.13c0,0.17,0,0.34,0,0.52c0,19.88,14.14,36.46,32.91,40.23c-3.44,0.94-7.07,1.44-10.81,1.44
	c-2.64,0-5.21-0.26-7.72-0.74c5.22,16.3,20.38,28.17,38.33,28.5c-14.04,11.01-31.74,17.57-50.96,17.57c-3.31,0-6.58-0.19-9.79-0.57
	c18.16,11.64,39.73,18.44,62.9,18.44c75.47,0,116.75-62.52,116.75-116.75c0-1.78-0.04-3.55-0.12-5.31
	C237.54,103.43,244.5,96.2,250,87.97z"/>
</svg>
